<?xml version="1.0" encoding="UTF-8" standalone="no"?>
<!DOCTYPE svg PUBLIC "-//W3C//DTD SVG 1.1//EN" "http://www.w3.org/Graphics/SVG/1.1/DTD/svg11.dtd">
<svg width="100%" height="100%" viewBox="0 0 40 26" version="1.1" xmlns="http://www.w3.org/2000/svg" xmlns:xlink="http://www.w3.org/1999/xlink" xml:space="preserve" xmlns:serif="http://www.serif.com/" style="fill-rule:evenodd;clip-rule:evenodd;stroke-linejoin:round;stroke-miterlimit:2;">
    <g transform="matrix(1,0,0,1,0,-0.128)">
        <g>
            <path d="M39.471,0.128L29.651,0.128L17.703,25.773L24.738,25.773C26.533,25.773 27.904,24.862 28.705,23.165C29.507,21.468 39.471,0.128 39.471,0.128" style="fill:rgb(28,63,148);fill-rule:nonzero;"/>
            <path d="M26.485,0.128L14.542,25.773L10.011,25.773L20.776,2.739C21.577,1.078 22.945,0.128 24.692,0.128L26.485,0.128Z" style="fill:rgb(238,49,36);fill-rule:nonzero;"/>
            <path d="M12.324,14.128L1.182,14.128C0.519,14.128 0,14.65 0,15.302C0,15.595 0.143,15.89 0.332,16.118L7.886,23.621L12.324,14.128Z" style="fill:rgb(28,63,148);fill-rule:nonzero;"/>
        </g>
    </g>
</svg>
